# xmcd
#
# Track frame offsets:
#	150
#	27136
#	46992
#	67577
#	82151
#	97895
#	118296
#	136326
#	155086
#	172156
#	185997
#	206180
#	222625
#	243290
#	263784
#	285110
#
# Disc length: 4126 seconds
#
# Revision: 1
# Processed by: cddbd v1.5.2PL0 Copyright (c) Steve Scherf et al.
# Submitted via: audiograbber 1.83.01
#
DISCID=ef101c10
DTITLE=Various Artist - Maximum Mojo (ten years of the best in blues music from Electr
DTITLE=o-Fi Records)
DYEAR=2007
DGENRE=Blues
TTITLE0=Snooky Pryor - Slow Down
TTITLE1=Sam Myers - I'm Tired Of Your Jive
TTITLE2=Mel Brown - Snap
TTITLE3=Enrico Crivellaro with James Harmann - Drinkin' Cheap Champagne
TTITLE4=Billy Boy Arnold - Me And Piney Brown
TTITLE5=Finis Tasby - Back In Love Again
TTITLE6=Gary Primich - Wig City
TTITLE7=Paul Oscher - Work That Stuff
TTITLE8=Miss Angel - Ramblin'
TTITLE9=Early In The Morning - Curley Bridges
TTITLE10=Little MAck Simmons - You're So Special
TTITLE11=Mark Hummel - Beepin' On Me
TTITLE12=Lil' Dave Thompson - Out In The Cold
TTITLE13=Morgan Davis - Driving The Backroads
TTITLE14=Fathead - Commit A Crime
TTITLE15=Harmonica Shah - Lonesome Graveyard Blues
EXTD=
EXTT0=
EXTT1=
EXTT2=
EXTT3=
EXTT4=
EXTT5=
EXTT6=
EXTT7=
EXTT8=
EXTT9=
EXTT10=
EXTT11=
EXTT12=
EXTT13=
EXTT14=
EXTT15=
PLAYORDER=
